<?xml version="1.0" encoding="UTF-8" standalone="no"?>
<svg
   xmlns:dc="http://purl.org/dc/elements/1.1/"
   xmlns:cc="http://creativecommons.org/ns#"
   xmlns:rdf="http://www.w3.org/1999/02/22-rdf-syntax-ns#"
   xmlns:svg="http://www.w3.org/2000/svg"
   xmlns="http://www.w3.org/2000/svg"
   id="svg4136"
   xml:space="preserve"
   enable-background="new 0 0 182.5 2375.5"
   viewBox="0 0 182.5 257"
   height="257"
   width="182.5"
   y="0"
   x="0"
   version="1.1">
  <g transform="translate(0,-4)" id="g4196">
    <path
       style="fill:none;stroke:#282a2c;stroke-miterlimit:10"
       stroke-miterlimit="10"
       d="m 80.3,71 c 0,0 6.5,-4 -4.5,-12.2 0,0 -30,-32.5 14.5,-43.7 0,0 24.5,0.8 25.3,23 0,0 4.8,21.3 -9.5,33 0,0 -4.5,-0.5 -7.5,-2.2 0,0 -6.7,0.3 -3.5,8 l 13.8,18.5 c 0,0 7.5,17.3 0.8,36.5 0,0 -3.7,25 -10.5,30.3 0,0 -33.5,50.8 -33.1,51.5 0.4,0.7 -1.1,14.1 -36.1,21.8 l -9.5,4.5 0,3 11,17.5 -13.5,0 -5,-22.2 c 0,0 -1,-2.2 3,-3 0,0 11,-4.2 19,-16 0,0 9.3,-10.2 18,-7.7 0,0 5,-53 7.3,-54 C 62.6,156.6 59,145.5 82,112 82,112 63.8,72.8 80.3,71 Z M 46.8,113.8 75.5,79 c 0,0 2.8,-7.7 7.5,0 0,0 2,9.5 -4.5,9.8 L 55,117 l 7.4,33.1 -8.7,22.6 -14.5,11 c 0,0 -3,-1 4,-9.7 0,0 4.3,-2.5 3.8,-11 0,0 -1.7,-2.5 9.5,-11.2 0,0 -13,-38 -9.7,-38 z m 62.5,19.2 24.2,23 c 0,0 4.5,3 0,15 -4.5,12 -5.7,-10 -5.7,-10 0,0 -6.8,-3.7 -6.5,-10 0,0 3.4,-1.8 -13.3,-11 l 1.3,-7 z m -4.1,18 18.2,55.4 c 0,0 15,9.9 26,37.6 0,0 -1.7,13.2 28,-6.4 0,0 8,-1.1 -15,21.9 l -7.4,0 c 0,0 -37.8,-26.6 -34.7,-39.8 L 84.7,183.8 105.2,151 Z"
       id="path4142" />
    <line
       style="fill:none"
       x1="71.800003"
       y1="84.099998"
       x2="74.900002"
       y2="80.5"
       id="line4144" />
    <line
       style="fill:none"
       x1="76.099998"
       y1="91.5"
       x2="72.599998"
       y2="95.599998"
       id="line4146" />
    <animate
      id="frame1"
      attributeName="display"
      values="inline;none;none;none;none;none;none;none;none"
      keyTimes="0;0.125;0.25;0.375;0.5;0.625;0.75;0.875;1"
      dur="1s"
      begin="0s"
      repeatCount="indefinite" />
  </g>
  <g transform="translate(0,-269.01523)" id="g4201">
    <path
       style="fill:none;stroke:#282a2c;stroke-miterlimit:10"
       stroke-miterlimit="10"
       d="m 86.6,349.1 c 0,0 5.9,-5.3 0.2,-10.8 0,0 -17.2,-11.5 -8.7,-28.2 0,0 18,-28.7 42.5,-4.2 0,0 10.8,23.1 -6.5,41.5 0,0 -1,1.9 -10.7,-1.8 0,0 -7.5,2.6 2.5,13.1 0,0 21.3,16.4 10,49.9 0,0 -25,72 -45.2,88.8 0,0 -0.2,9 -57.2,7.8 l -7.2,19.5 -3.8,0 0,-29.7 c 0,0 8.5,0 9.8,5 0,0 0.8,3.7 11.8,-3 0,0 26.5,-11.5 36.3,-9.5 0,0 -1.7,-64.7 29.5,-97.2 -0.1,0 -17.1,-30.9 -3.3,-41.2 z m -1.6,9.5 c 0,0 3.3,-14.1 9.8,-2.1 0,0 0.3,5.3 -3.2,8.3 l -7.7,29.9 c 0,0 -5.2,38.1 -10.7,40.3 l -11.7,15.3 c 0,0 -3.7,-1.5 3.5,-20.2 0,0 6,-12.2 9.8,-12.5 L 74.6,394.8 85,358.6 Z m 26.8,61.2 23.9,50.4 -7.7,41.8 21.5,12.5 -26.7,1 c 0,0 -10.5,-47 -2,-55.2 l -23.3,-15.8 14.3,-34.7 z m 2.9,-7.6 9.4,24 c 0,0 14,15.9 5.6,21.2"
       id="path4148" />
    <animate
      id="frame2"
      attributeName="display"
      values="none;inline;none;none;none;none;none;none;none"
      keyTimes="0;0.125;0.25;0.375;0.5;0.625;0.75;0.875;1"
      dur="1s"
      begin="0s"
      repeatCount="indefinite" />
  </g>
  <g
     transform="translate(0,-533.1)"
     id="g4204">
    <path
       style="fill:none;stroke:#282a2c;stroke-miterlimit:10"
       stroke-miterlimit="10"
       d="m 83.6,760.8 -18.3,20 25.9,8.8 -35.2,0 c 0,0 6.1,-15.5 12.5,-28.9 4.4,-9.2 8.9,-17.4 11.5,-18.8 0,0 -18.7,-36.7 -13.5,-53.2 0,0 5.5,-29.7 20,-41.2 0,0 -12.7,-36.2 2,-46 0,0 5.5,-5.2 -3.7,-13.2 0,0 -23.1,-18.7 2.7,-40 0,0 30.6,-12.2 36.8,18 0,0 0.3,36 -10,35.3 0,0 -17,-9.2 -9.5,7.8 0,0 24,17 15.5,50.5 0,0 -17.2,24 2.5,54 0,0 8,23.5 8,25.5 0,2 5.8,10.8 -15.5,15.8 l -30.5,4.5 c 0,0 13.3,-8 11.8,-15 0,0 10.5,-5 19,-4 0,0 -14,-12.7 -16.5,-13.2 -2.5,-0.5 -2.7,16.8 -2.7,16.8"
       id="path4150" />
    <polygon
       style="fill:none;stroke:#282a2c;stroke-miterlimit:10"
       stroke-miterlimit="10"
       points="68.5,758.8 58.8,782.6 56,762.5 "
       id="polygon4152" />
    <path
       style="fill:none;stroke:#282a2c;stroke-miterlimit:10"
       stroke-miterlimit="10"
       d="m 93.7,616.7 c 0,0 3.3,-11.4 -7.2,-7.9 0,0 -2.7,4.1 0,7.9 l 0.3,32.3 c 0,0 -4.3,18.8 3,43.5 0,0 -12,10.5 2,28 0,0 0.5,7.3 2,4.5 1.5,-2.8 2.8,-17.2 2.8,-17.2 0,0 -2.5,-14.2 -1.2,-19.5 1.3,-5.3 -1.7,-71.6 -1.7,-71.6 z"
       id="path4154" />
    <animate
      id="frame3"
      attributeName="display"
      values="none;none;inline;none;none;none;none;none;none"
      keyTimes="0;0.125;0.25;0.375;0.5;0.625;0.75;0.875;1"
      dur="1s"
      begin="0s"
      repeatCount="indefinite" />
  </g>
  <g
     transform="translate(0,-798.11443)"
     id="g4209">
    <path
       style="fill:none;stroke:#282a2c;stroke-miterlimit:10"
       stroke-miterlimit="10"
       d="m 83.7,858 c 0,0 7,-3.3 0,-12.7 0,0 -37,-28.3 9,-46 0,0 33.3,-1.7 26.7,31.3 0,0 -0.3,25 -11,25.3 0,0 -13,-3.7 -8.3,7.3 0,0 23.3,16.7 14,53 l -3.4,11.8 c 0,0 -7.7,18.7 15.7,42.3 0,0 21.7,22.7 9.3,27.7 l -41.7,24.8 21,18.6 -32.7,-10 c 0,0 26.7,-40.3 35,-39 l -30,-20 c 0,0 -12,26.3 -20.7,33.7 0,0 -9.3,29.3 -7.3,37 l 20,10.5 -29.3,1 c 0,0 -7.7,-42.2 5.3,-55.2 0,0 2.9,-70.8 28,-98.7 0,0 -5.1,-13.7 -5.9,-25.7 -0.5,-7.8 0.8,-14.8 6.3,-17 z M 76,876.3 63.3,904.6 c 0,0 -4.1,4 8.4,14.7 l 2.9,-6 c 0,0 -4,-2.7 -5.3,-4 C 68,908 80.1,890.1 80.1,890.1 m 0,-15.8 c 0,0 -5.1,-3.3 2.2,-8 0,0 5.3,-0.8 5.3,5.7 l 18.3,38.3 22,23.7 c 0,0 8.7,-5.3 19.7,21.3 0,0 -3.7,2.7 -20.3,-12.3 0,0 -28.7,-24 -29.7,-30 L 80.1,874.3 Z"
       id="path4156" />
    <animate
      id="frame4"
      attributeName="display"
      values="none;none;none;inline;none;none;none;none;none"
      keyTimes="0;0.125;0.25;0.375;0.5;0.625;0.75;0.875;1"
      dur="1s"
      begin="0s"
      repeatCount="indefinite" />
  </g>
  <g
     transform="translate(0,-1062)"
     id="g4212">
    <path
       style="fill:none;stroke:#282a2c;stroke-miterlimit:10"
       stroke-miterlimit="10"
       d="m 104.4,1191.1 c 0,0 -6.9,29.3 21.5,92 l 11.4,27.3 31.4,-11 -21.3,19.1 -8.4,0 c 0,0 -32,-33.5 -32.7,-46.8 L 78,1245 c 0,0 -11.9,29 -14.2,31 l -42.2,25 0,11 14.2,6.5 -20.8,0 c 0,0 -12.2,-21.9 -5.9,-22.9 l 12.3,-0.3 c 0,0 15.7,-25.7 29.3,-29.7 0,0 -5.7,-50.7 24.7,-89.3 0,0 -3.7,-15.8 -4.1,-29.7 -0.3,-9.4 0.9,-17.8 5.8,-20 0,0 7,-5.3 -1.3,-12.7 0,0 -22.6,-14.3 2,-37.7 0,0 35.3,-16 37.3,22 0,0 -1.3,27.7 -12.7,26.7 0,0 -14.3,-8 -7.7,7 0,0 23.7,16.7 12,51.3 m -37,-37.2 -15.7,31.7 -1.3,28 c 0,0 -10.3,4.7 -16,22.7 0,0 -1,6.3 10.3,-3.3 l 9.6,-12.4 5,-33.3 10.7,-19.7 m 2.4,-17.7 c 0,0 -5.7,-5.3 2.3,-8.7 0,0 4.2,0.3 3.1,4.3 l 16.5,35 29.3,29 c 0,0 16.7,-0.7 13.7,25.3 0,0 -4,2.3 -4,-2.7 0,-5 -13,-6.7 -10.3,-16.7 l -35.7,-30 -14.9,-35.5 z"
       id="path4158" />
    <animate
      id="frame5"
      attributeName="display"
      values="none;none;none;none;inline;none;none;none;none"
      keyTimes="0;0.125;0.25;0.375;0.5;0.625;0.75;0.875;1"
      dur="1s"
      begin="0s"
      repeatCount="indefinite" />
  </g>
  <g
     transform="translate(0,-1326.2422)"
     id="g4215">
    <path
       style="fill:none;stroke:#282a2c;stroke-miterlimit:10"
       stroke-miterlimit="10"
       d="m 113.1,1485.3 22.3,43 -8.4,40.7 21.3,13.5 -26.3,0 c 0,0 -11.5,-41.6 -3,-55.5 l -24.3,-15 -21,35.7 c 0,0 0.3,18 -62,15.3 l -7.4,18 -3.7,1.5 0,-29.5 12.5,3.3 c 0,0 33.7,-15.3 45.7,-12 0,0 1,-63.3 13,-70.7 l 16,-25.3 c 0,0 -18,-33.3 -1,-44.7 0,0 1.1,-4.7 -3,-9.4 0,0 -29,-27 12,-42.3 0,0 33.7,1.3 27.3,26 0,0 -1.7,29 -13.7,26 0,0 -11.3,-5.7 -7.7,7.7 0,0 27.3,21 12.3,60.3 m -34.4,-42.2 -7,22.5 1.8,17.1 7.3,-11.6 c 0,0 -0.2,-11.1 3,-15.6 l -5.1,-12.4 z m 5.2,-6 c 0,0 -9.1,-7 3.6,-11.3 0,0 10.3,1.3 6.3,11.3 0,0 13.7,53.7 31.7,70.7 0,0 11.5,20.8 1.6,19.5 l -12.5,-24.1 c 0,0 -20.7,-26.7 -21.1,-34.9 l -9.6,-31.2 z"
       id="path4160" />
    <animate
      id="frame6"
      attributeName="display"
      values="none;none;none;none;none;inline;none;none;none"
      keyTimes="0;0.125;0.25;0.375;0.5;0.625;0.75;0.875;1"
      dur="1s"
      begin="0s"
      repeatCount="indefinite" />
  </g>
  <g
     transform="translate(0,-1591)"
     id="g4218">
    <path
       style="fill:none;stroke:#282a2c;stroke-miterlimit:10"
       stroke-miterlimit="10"
       d="m 78.3,1660 c 0,0 7,-5.7 -1.7,-15 0,0 -27,-23.3 4.3,-41.3 0,0 30.3,-6.7 34,17.3 0,0 0.7,35 -10.7,37.3 0,0 -15.7,-7 -9.3,7 0,0 30,19.3 9.7,71.3 l -13,19.9 c 0,0 2,50.5 -15,59.8 l -20.7,22 24.7,9.2 -31.6,0 c 0,0 13.7,-43.8 24,-49.5 0,0 -38.3,-44 6,-96.3 0,0 -14,-27.7 -0.7,-41.7 z m -0.6,13.3 c 0,0 -7,-5.7 2.7,-8.7 0,0 8,1.7 3.3,8.7 0,0 7.3,58.7 1.5,79.7 0,0 0.9,21.3 -3.1,28.3 0,0 -2.9,3 -3.8,-7.7 0,0 -7.2,-11.3 1.4,-21.3 0,0 -6.3,-32.5 -0.7,-42.9 l -1.3,-36.1 z m 26,64.8 18,54.5 c 0,0 4,13 -10.7,18.7 l -35.3,6 11.7,-17.9 18.6,-2.1 -15.8,-11.6"
       id="path4162" />
    <polyline
       style="fill:none;stroke:#282a2c;stroke-miterlimit:10"
       stroke-miterlimit="10"
       points="59.4 1819.3 45.9 1823.3 51.3 1840.5 "
       id="polyline4164" />
    <animate
      id="frame7"
      attributeName="display"
      values="none;none;none;none;none;none;inline;none;none"
      keyTimes="0;0.125;0.25;0.375;0.5;0.625;0.75;0.875;1"
      dur="1s"
      begin="0s"
      repeatCount="indefinite" />
  </g>
  <g
     transform="translate(0,-1854)"
     id="g4222">
    <path
       style="fill:none;stroke:#282a2c;stroke-miterlimit:10"
       stroke-miterlimit="10"
       d="m 79.2,1915.3 c 0,0 6.3,-3.8 -3.4,-14.5 0,0 -25.3,-29.7 5.3,-42.7 0,0 45.6,-11.7 32.6,43.6 0,0 -1.7,12.3 -10.7,13.3 0,0 -15.3,-11.3 -6.3,9 0,0 27.7,12.8 6.7,72.2 0,0 -0.2,0.4 -0.7,1.1 -4.9,8.3 -35.3,59.8 -39,61.6 l -9.7,41.4 20,10.2 -25,0 c 0,0 -13.7,-36.8 3.7,-55.8 0,0 -1.6,-81.3 27.3,-97.7 0,0 -18.3,-30.2 -0.8,-41.7 z m 25.5,82.4 24.3,37.3 c 0,0 15.7,15 -5.3,24.3 l -34,19.3 20,18 -29.7,-10.7 c 0,0 19.7,-38.3 33.1,-38.8 l -29,-18.7 M 76.3,1924 c 0,0 2.7,-10 8.3,-5.7 0,0 8,3.7 -1.7,8.7 l -16.7,39 25.3,26.1 5.7,23.5 c 0,0 -4.7,2.7 -6.3,-6 -1.6,-8.7 -8.7,-10 -7.7,-17.5 1,-7.5 -1.5,0 -1.5,0 L 57.9,1970 c 0,0 -3,-2.3 0,-7.7 L 76.3,1924 Z m 32.7,52.4 c 0,0 27.7,17.6 33.7,35.6 0,0 0.3,5.3 -5,0 0,0 -22.3,-9.5 -17,-14.3 2.5,-2.3 0.3,-2.3 0.3,-2.3 0,0 -7.8,-5 -13.7,-8.2"
       id="path4166" />
    <animate
      id="frame8"
      attributeName="display"
      values="none;none;none;none;none;none;none;inline;none"
      keyTimes="0;0.125;0.25;0.375;0.5;0.625;0.75;0.875;1"
      dur="1s"
      begin="0s"
      repeatCount="indefinite" />
  </g>
  <g
     transform="translate(0,-2119)"
     id="g4225">
    <path
       style="fill:none;stroke:#282a2c;stroke-miterlimit:10"
       stroke-miterlimit="10"
       d="m 74.6,2185 c 0,0 7.9,-5 -2.5,-13 0,0 -18.4,-19 -0.1,-34.7 0,0 23.3,-18.3 38,5.7 0,0 7.7,13 -1.7,34 0,0 -2.3,7.8 -9.3,5.2 0,0 -14,-5.6 -7,9.8 0,0 30,17.1 8,68.4 l -36.1,68.9 c 0,0 -9.8,13.3 -18.1,15 l -26.3,13 0,12.7 14.2,5.5 -20.7,0 c 0,0 -13.4,-21.5 -4.7,-20.8 l 8.7,-1.3 c 0,0 19.3,-26.7 31.3,-30 0,0 -3.2,-54 24.3,-88.7 0.1,0 -8.4,-45.4 2,-49.7 z m 25.6,77.7 34.8,104.3 29.4,-10.3 c 0,0 1.4,2 -1.6,5 l -16.6,13.8 -9.2,0 c 0,0 -30,-31.5 -31,-43.5 l -28.6,-28.6 m -4.7,-106.1 c 0,0 3,-13 9.3,-7 0,0 5.7,10 0,12.7 l -20,31 -7.2,36.7 c 0,0 -2.1,9.7 -8.1,12.7 l -11.1,5 c 0,0 4.1,-16.7 8.1,-18.7 l 8,-7 1,-27.3 20,-38.1 z m 33,46.7 c 0,0 19,16.2 23.3,16.4 0,0 14,8.6 9.3,23.6 0,0 -3,7.4 -5,-2.9 0,0 -11.8,-8.2 -10.9,-15.8 l -18.2,-16.5"
       id="path4168" />
    <animate
      id="frame9"
      attributeName="display"
      values="none;none;none;none;none;none;none;none;inline"
      keyTimes="0;0.125;0.25;0.375;0.5;0.625;0.75;0.875;1"
      dur="1s"
      begin="0s"
      repeatCount="indefinite" />
  </g>
</svg>